<?xml version="1.0" standalone="no"?>
<!DOCTYPE svg PUBLIC "-//W3C//DTD SVG 20010904//EN"
 "http://www.w3.org/TR/2001/REC-SVG-20010904/DTD/svg10.dtd">
<svg version="1.0" xmlns="http://www.w3.org/2000/svg"
 width="512.000000pt" height="512.000000pt" viewBox="0 0 512.000000 512.000000"
 preserveAspectRatio="xMidYMid meet">

<g transform="translate(0.000000,512.000000) scale(0.100000,-0.100000)"
fill="#000000" stroke="none">
<path d="M1255 5107 c-98 -33 -172 -97 -213 -185 -23 -50 -27 -73 -30 -179
l-4 -123 -202 0 c-241 0 -304 -11 -434 -76 -131 -64 -232 -165 -296 -296 -82
-165 -77 -25 -74 -1971 3 -1653 4 -1734 21 -1787 66 -195 192 -340 372 -426
140 -67 24 -64 2166 -64 2163 0 2022 -5 2174 70 150 74 250 174 321 325 68
144 65 43 62 1955 -3 1652 -4 1727 -22 1780 -66 196 -188 338 -361 422 -118
57 -187 68 -421 68 l-202 0 -4 123 c-3 106 -7 129 -30 178 -33 72 -94 134
-167 168 -47 22 -70 26 -141 26 -73 0 -93 -4 -141 -28 -67 -32 -142 -109 -172
-175 -16 -37 -22 -73 -25 -169 l-4 -123 -868 0 -868 0 -4 123 c-3 108 -7 130
-30 178 -58 117 -166 190 -291 195 -42 2 -89 -2 -112 -9z m166 -99 c51 -15
114 -69 142 -122 21 -39 22 -55 25 -316 4 -339 0 -363 -72 -435 -60 -60 -118
-81 -196 -72 -59 7 -97 26 -139 68 -65 65 -66 66 -69 374 -2 154 -1 299 3 321
19 133 171 223 306 182z m2430 -3 c60 -21 125 -87 144 -146 14 -40 16 -95 13
-341 -3 -322 -3 -322 -69 -387 -62 -63 -149 -85 -236 -60 -62 17 -143 96 -161
155 -17 57 -17 571 0 628 15 51 99 137 148 153 51 16 111 15 161 -2z m-2839
-637 c3 -141 5 -158 29 -209 34 -72 96 -134 168 -168 47 -22 70 -26 141 -26
71 0 94 4 140 26 70 33 132 95 167 167 26 53 28 67 32 210 l3 152 868 0 868 0
3 -152 c4 -143 6 -157 32 -210 35 -72 97 -134 167 -167 46 -22 69 -26 140 -26
71 0 94 4 141 26 72 34 134 96 168 168 24 51 26 68 29 209 l4 154 221 -4 c194
-4 230 -7 288 -26 169 -56 315 -202 371 -371 21 -62 22 -88 26 -408 l3 -343
-2461 0 -2461 0 3 343 c3 323 5 346 26 409 30 91 112 210 180 263 142 112 223
134 499 134 l201 1 4 -152z m4006 -2450 l-3 -1353 -22 -66 c-59 -173 -206
-318 -378 -372 l-70 -22 -1985 0 -1985 0 -70 22 c-172 54 -319 199 -378 372
l-22 66 -3 1353 -2 1352 2460 0 2460 0 -2 -1352z"/>
<path d="M2365 2996 c-428 -72 -783 -332 -968 -708 -101 -205 -132 -346 -131
-593 1 -167 3 -188 32 -297 64 -245 167 -424 346 -604 159 -160 309 -253 510
-319 155 -50 223 -60 406 -60 184 0 251 10 409 62 198 64 369 172 524 332 194
201 307 427 353 711 19 113 14 336 -10 445 -59 271 -182 493 -377 680 -185
177 -389 286 -639 340 -103 22 -353 28 -455 11z m383 -101 c249 -41 462 -147
645 -324 168 -162 270 -339 335 -580 23 -87 25 -114 25 -281 0 -167 -2 -194
-25 -281 -68 -253 -169 -423 -352 -596 -153 -144 -313 -231 -534 -290 -88 -24
-114 -27 -282 -27 -168 0 -194 3 -282 27 -244 65 -389 149 -563 322 -174 174
-257 320 -322 563 -24 88 -26 114 -26 282 0 167 2 194 25 281 66 244 165 416
335 580 97 94 182 154 298 212 222 111 480 151 723 112z"/>
<path d="M2478 2515 c-79 -29 -104 -59 -188 -226 -75 -149 -82 -158 -113 -164
-17 -3 -92 -14 -164 -25 -175 -26 -229 -55 -279 -150 -25 -48 -25 -162 0 -210
10 -19 73 -90 139 -157 l120 -122 -27 -167 c-29 -174 -29 -210 4 -274 40 -77
127 -129 218 -130 46 0 71 10 212 82 l160 81 160 -81 c141 -72 166 -82 212
-82 91 1 178 53 218 130 33 64 33 100 4 274 l-27 167 120 122 c66 67 129 138
139 157 25 48 25 162 0 210 -50 95 -104 124 -279 150 -72 11 -147 22 -165 25
-30 6 -37 15 -107 155 -46 92 -88 162 -111 184 -62 60 -164 81 -246 51z m140
-99 c47 -25 69 -58 146 -218 60 -126 80 -158 98 -162 13 -3 91 -14 173 -26 83
-12 164 -26 182 -31 63 -20 102 -93 88 -167 -5 -31 -30 -60 -147 -174 l-140
-137 33 -194 32 -193 -19 -39 c-25 -50 -61 -76 -115 -82 -40 -5 -59 3 -217 84
l-174 90 -161 -86 c-143 -76 -168 -86 -214 -86 -62 0 -99 23 -127 80 l-20 39
33 194 33 195 -136 129 c-146 139 -165 170 -152 242 9 46 48 92 89 105 18 5
100 19 182 31 83 12 160 24 172 28 16 5 44 52 106 177 75 150 89 173 123 192
45 26 93 29 132 9z"/>
</g>
</svg>
